<?xml version="1.0" encoding="UTF-8"?>
<!-- Icon battery — AFAQ Corporate Profile, 64x64. Editable vector: inline fills only, text as <text>, no masks/CSS/transforms. Font: Inter (300/400/500/600). -->
<svg xmlns="http://www.w3.org/2000/svg" width="64" height="64" viewBox="0 0 64 64">
  <g id="Icon-battery">
    <path id="Icon-battery-1" d="M 13 25 C 13 23.34 14.34 22 16 22 L 42 22 C 43.66 22 45 23.34 45 25 L 45 39 C 45 40.66 43.66 42 42 42 L 16 42 C 14.34 42 13 40.66 13 39 Z" fill="none" stroke="#053C45" stroke-width="3" stroke-linecap="round" stroke-linejoin="round"/>
    <path id="Icon-battery-2" d="M 45 29.5 C 45 28.67 45.67 28 46.5 28 L 48.5 28 C 49.33 28 50 28.67 50 29.5 L 50 34.5 C 50 35.33 49.33 36 48.5 36 L 46.5 36 C 45.67 36 45 35.33 45 34.5 Z" fill="none" stroke="#053C45" stroke-width="3" stroke-linecap="round" stroke-linejoin="round"/>
    <path id="Icon-battery-3" d="M 31 25 L 25 33 L 30 33 L 27 39 L 33 31 L 28 31 Z" fill="none" stroke="#053C45" stroke-width="3" stroke-linecap="round" stroke-linejoin="round"/>
  </g>
</svg>
