<?xml version="1.0" encoding="UTF-8"?>
<svg xmlns="http://www.w3.org/2000/svg" xmlns:xlink="http://www.w3.org/1999/xlink" width="24mm" height="24mm" viewBox="0 0 24 24">
<title>Rova Skin icon · gift</title>
<desc>Rova Skin product sticker. Units: 1 user unit = 1 mm. Trim 24 x 24 mm, 3 mm bleed drawn outside the artboard, 5 mm safe area. Fonts: Georgia, Georgia Italic, Syne Bold, Amiri. Group "Dieline" is non-printing.</desc>
<defs></defs>
<g id="Icon"><g id="icon-gift" fill="none" stroke="#3C1219" stroke-width="1.25" stroke-linecap="round" stroke-linejoin="round" transform="translate(0 0) scale(1.000000)"><path d="M3.4 12.2 C6.3 8.6 9.4 8.3 12 10.3 C14.6 8.3 17.7 8.6 20.6 12.2 C17.6 15.9 14.6 17.2 12 17.2 C9.4 17.2 6.4 15.9 3.4 12.2 Z"/><path d="M3.4 12.2 C8 12.9 16 12.9 20.6 12.2"/><path d="M19.400 3.600 C19.507 4.827 20.173 5.493 21.400 5.600 C20.173 5.707 19.507 6.373 19.400 7.600 C19.293 6.373 18.627 5.707 17.400 5.600 C18.627 5.493 19.293 4.827 19.400 3.600 Z"/></g></g>
</svg>
