<?xml version="1.0" encoding="UTF-8"?>
<svg xmlns="http://www.w3.org/2000/svg" xmlns:xlink="http://www.w3.org/1999/xlink" width="24mm" height="24mm" viewBox="0 0 24 24">
<title>Rova Skin icon · renew</title>
<desc>Rova Skin product sticker. Units: 1 user unit = 1 mm. Trim 24 x 24 mm, 3 mm bleed drawn outside the artboard, 5 mm safe area. Fonts: Georgia, Georgia Italic, Syne Bold, Amiri. Group "Dieline" is non-printing.</desc>
<defs></defs>
<g id="Icon"><g id="icon-renew" fill="none" stroke="#3C1219" stroke-width="1.25" stroke-linecap="round" stroke-linejoin="round" transform="translate(0 0) scale(1.000000)"><path d="M10.063 4.681 C6.402 5.207 3.579 8.173 3.235 11.856 C2.891 15.538 5.115 18.976 8.615 20.171 C12.115 21.366 15.978 20.006 17.958 16.882 C14.619 18.611 10.514 17.522 8.471 14.366 C6.429 11.209 7.118 7.018 10.063 4.681 Z"/><path d="M18.600 3.800 C18.728 5.272 19.528 6.072 21.000 6.200 C19.528 6.328 18.728 7.128 18.600 8.600 C18.472 7.128 17.672 6.328 16.200 6.200 C17.672 6.072 18.472 5.272 18.600 3.800 Z"/></g></g>
</svg>
