<?xml version="1.0" encoding="UTF-8"?>
<!-- 08 Contact — AFAQ Corporate Profile, 1080x1920. Editable vector: inline fills only, text as <text>, no masks/CSS/transforms. Font: Inter (300/400/500/600). -->
<svg xmlns="http://www.w3.org/2000/svg" width="1080" height="1920" viewBox="0 0 1080 1920">
  <defs>
    <linearGradient id="grad-1" gradientUnits="userSpaceOnUse" x1="-60" y1="0" x2="1140" y2="0"><stop offset="0" stop-color="#E9FBB8" stop-opacity="1"/><stop offset="0.45" stop-color="#C8FB5F" stop-opacity="1"/><stop offset="1" stop-color="#A4DC3C" stop-opacity="1"/></linearGradient>
  </defs>
  <rect id="Background" x="0" y="0" width="1080" height="1920" fill="#053C45"/>
  <g id="Header">
    <g id="Logo-Lockup">
      <g id="Wordmark-AFQ">
        <path id="Letter-A" d="M 77.28 110.72 L 86.96 86.08 C 89.6 79.04 98.4 79.04 101.04 86.08 L 110.72 110.72" fill="none" stroke="#F5F4EB" stroke-width="10.56" stroke-linecap="round" stroke-linejoin="round"/>
        <path id="Letter-F" d="M 125.68 110.72 L 125.68 77.28 L 152.08 77.28 M 125.68 94 L 147.68 94" fill="none" stroke="#F5F4EB" stroke-width="10.56" stroke-linecap="round" stroke-linejoin="round"/>
        <path id="Letter-Q" d="M 166.16 90.48 C 166.16 83.19 172.07 77.28 179.36 77.28 L 186.4 77.28 C 193.69 77.28 199.6 83.19 199.6 90.48 L 199.6 97.52 C 199.6 104.81 193.69 110.72 186.4 110.72 L 179.36 110.72 C 172.07 110.72 166.16 104.81 166.16 97.52 Z M 189.04 100.16 L 200.48 112.48" fill="none" stroke="#F5F4EB" stroke-width="10.56" stroke-linecap="round" stroke-linejoin="round"/>
      </g>
      <text id="Tagline" x="72" y="137.37" font-family="Inter" font-size="12" font-weight="500" fill="#F5F4EB" letter-spacing="3.6">ENERGY. ENGINEERED.</text>
    </g>
    <text id="Eyebrow" x="1008" y="99.46" font-family="Inter" font-size="15" font-weight="500" fill="#F5F4EB" letter-spacing="3.3" text-anchor="end" opacity="0.85">CORPORATE PROFILE 2026</text>
  </g>
  <g id="Slogan">
    <text id="Slogan-line" x="72" y="414.1" font-family="Inter" font-size="80" font-weight="300" fill="#C8FB5F" letter-spacing="-1.6">Innovating today,</text>
    <text id="Slogan-line-2" x="72" y="504.1" font-family="Inter" font-size="80" font-weight="300" fill="#C8FB5F" letter-spacing="-1.6">sustaining tomorrow.</text>
  </g>
  <text id="Contact-Title" x="72" y="594.46" font-family="Inter" font-size="26" font-weight="500" fill="#F5F4EB" opacity="0.7">Contact</text>
  <g id="Contact-Phone">
    <circle id="Icon-Disc" cx="106" cy="672" r="34" fill="#C8FB5F"/>
    <g id="Icon">
      <path id="Icon-phone-1" d="M 99.33 660.67 C 99.33 659.33 100 659.33 101.33 659.33 L 104 659.33 L 106 664.67 L 103.33 666.67 C 104.67 670.67 107.33 673.33 111.33 674.67 L 113.33 672 L 118.67 674 L 118.67 676.67 C 118.67 678 118.67 678.67 117.33 678.67 C 107.33 678.67 99.33 670.67 99.33 660.67 Z" fill="none" stroke="#053C45" stroke-width="2.2" stroke-linecap="round" stroke-linejoin="round"/>
    </g>
    <text id="Label" x="172" y="653.09" font-family="Inter" font-size="14" font-weight="500" fill="#F5F4EB" letter-spacing="2.24" opacity="0.6">PHONE</text>
    <text id="Value" x="172" y="696.64" font-family="Inter" font-size="32" font-weight="500" fill="#F5F4EB">+968 9190 7789</text>
  </g>
  <g id="Contact-Email">
    <circle id="Icon-Disc-2" cx="106" cy="788" r="34" fill="#C8FB5F"/>
    <g id="Icon-2">
      <path id="Icon-mail-1" d="M 93.33 780.67 C 93.33 779.56 94.23 778.67 95.33 778.67 L 116.67 778.67 C 117.77 778.67 118.67 779.56 118.67 780.67 L 118.67 795.33 C 118.67 796.44 117.77 797.33 116.67 797.33 L 95.33 797.33 C 94.23 797.33 93.33 796.44 93.33 795.33 Z" fill="none" stroke="#053C45" stroke-width="2.2" stroke-linecap="round" stroke-linejoin="round"/>
      <path id="Icon-mail-2" d="M 93.33 780.67 L 106 790 L 118.67 780.67" fill="none" stroke="#053C45" stroke-width="2.2" stroke-linecap="round" stroke-linejoin="round"/>
    </g>
    <text id="Label-2" x="172" y="769.09" font-family="Inter" font-size="14" font-weight="500" fill="#F5F4EB" letter-spacing="2.24" opacity="0.6">EMAIL</text>
    <text id="Value-2" x="172" y="812.64" font-family="Inter" font-size="32" font-weight="500" fill="#F5F4EB">afaq@gmail.com</text>
  </g>
  <g id="Contact-Address">
    <circle id="Icon-Disc-3" cx="106" cy="904" r="34" fill="#C8FB5F"/>
    <g id="Icon-3">
      <path id="Icon-pin-1" d="M 106 916.67 C 106 916.67 96 906.67 96 900 C 96 894.67 100.67 890.67 106 890.67 C 111.33 890.67 116 894.67 116 900 C 116 906.67 106 916.67 106 916.67 Z" fill="none" stroke="#053C45" stroke-width="2.2" stroke-linecap="round" stroke-linejoin="round"/>
      <path id="Icon-pin-2" d="M 109.33 900 C 109.33 901.84 107.84 903.33 106 903.33 C 104.16 903.33 102.67 901.84 102.67 900 C 102.67 898.16 104.16 896.67 106 896.67 C 107.84 896.67 109.33 898.16 109.33 900 Z" fill="none" stroke="#053C45" stroke-width="2.2" stroke-linecap="round" stroke-linejoin="round"/>
    </g>
    <text id="Label-3" x="172" y="885.09" font-family="Inter" font-size="14" font-weight="500" fill="#F5F4EB" letter-spacing="2.24" opacity="0.6">ADDRESS</text>
    <text id="Value-3" x="172" y="928.64" font-family="Inter" font-size="32" font-weight="500" fill="#F5F4EB">Al Khuwair, behind Zakher Mall, Muscat</text>
  </g>
  <path id="Rule" d="M 72 1026 L 1008 1026" fill="none" stroke="#F5F4EB" stroke-width="1" stroke-linecap="butt" stroke-linejoin="round" opacity="0.2"/>
  <g id="Logo-Lockup-2">
    <g id="Wordmark-AFQ-2">
      <path id="Letter-A-2" d="M 85.2 1178.8 L 109.4 1117.2 C 116 1099.6 138 1099.6 144.6 1117.2 L 168.8 1178.8" fill="none" stroke="#F5F4EB" stroke-width="26.4" stroke-linecap="round" stroke-linejoin="round"/>
      <path id="Letter-F-2" d="M 206.2 1178.8 L 206.2 1095.2 L 272.2 1095.2 M 206.2 1137 L 261.2 1137" fill="none" stroke="#F5F4EB" stroke-width="26.4" stroke-linecap="round" stroke-linejoin="round"/>
      <path id="Letter-Q-2" d="M 307.4 1128.2 C 307.4 1109.97 322.17 1095.2 340.4 1095.2 L 358 1095.2 C 376.23 1095.2 391 1109.97 391 1128.2 L 391 1145.8 C 391 1164.03 376.23 1178.8 358 1178.8 L 340.4 1178.8 C 322.17 1178.8 307.4 1164.03 307.4 1145.8 Z M 364.6 1152.4 L 393.2 1183.2" fill="none" stroke="#F5F4EB" stroke-width="26.4" stroke-linecap="round" stroke-linejoin="round"/>
    </g>
    <text id="Tagline-2" x="72" y="1236.5" font-family="Inter" font-size="22" font-weight="500" fill="#C8FB5F" letter-spacing="6.6">ENERGY. ENGINEERED.</text>
  </g>
  <g id="Ribbon">
    <path id="Ribbon-Teal" d="M -34 1547.2 C 206 1587.2 366 1467.2 586 1487.2 C 806 1507.2 906 1687.2 1166 1607.2 L 1166 1699.24 C 906 1779.24 806 1599.24 586 1579.24 C 366 1559.24 206 1679.24 -34 1639.24 Z" fill="#053C45"/>
    <path id="Ribbon-Orange" d="M -50 1535.4 C 190 1575.4 350 1455.4 570 1475.4 C 790 1495.4 890 1675.4 1150 1595.4 L 1150 1678 C 890 1758 790 1578 570 1558 C 350 1538 190 1658 -50 1618 Z" fill="#FD7E25"/>
    <path id="Ribbon-Lime" d="M -60 1500 C 180 1540 340 1420 560 1440 C 780 1460 880 1640 1140 1560 L 1140 1678 C 880 1758 780 1578 560 1558 C 340 1538 180 1658 -60 1618 Z" fill="url(#grad-1)"/>
  </g>
  <g id="Footer">
    <path id="Footer-Rule" d="M 72 1800 L 1008 1800" fill="none" stroke="#F5F4EB" stroke-width="1" stroke-linecap="butt" stroke-linejoin="round" opacity="0.25"/>
    <text id="Footer-Section" x="72" y="1838.82" font-family="Inter" font-size="16" font-weight="400" fill="#F5F4EB" opacity="0.75">AFAQ for Energy &amp; Integrated Business</text>
    <text id="Footer-Page" x="1008" y="1838.82" font-family="Inter" font-size="16" font-weight="500" fill="#F5F4EB" text-anchor="end" opacity="0.75">08 / 08</text>
  </g>
</svg>
