<?xml version="1.0" encoding="UTF-8"?>
<!-- 02 About AFAQ — AFAQ Corporate Profile, 1080x1920. Editable vector: inline fills only, text as <text>, no masks/CSS/transforms. Font: Inter (300/400/500/600). -->
<svg xmlns="http://www.w3.org/2000/svg" width="1080" height="1920" viewBox="0 0 1080 1920">
  <defs>
    <linearGradient id="grad-1" gradientUnits="userSpaceOnUse" x1="0" y1="604" x2="0" y2="1776"><stop offset="0" stop-color="#022C32" stop-opacity="1"/><stop offset="1" stop-color="#0E5560" stop-opacity="1"/></linearGradient><linearGradient id="grad-2" gradientUnits="userSpaceOnUse" x1="80" y1="0" x2="960" y2="0"><stop offset="0" stop-color="#A4DC3C" stop-opacity="1"/><stop offset="0.35" stop-color="#C8FB5F" stop-opacity="1"/><stop offset="0.55" stop-color="#E9FBB8" stop-opacity="1"/><stop offset="0.75" stop-color="#C8FB5F" stop-opacity="1"/><stop offset="1" stop-color="#A4DC3C" stop-opacity="1"/></linearGradient>
  </defs>
  <rect id="Background" x="0" y="0" width="1080" height="1920" fill="#F5F4EB"/>
  <g id="Eyebrow">
    <rect id="Eyebrow-Pill" x="80" y="112" width="48" height="26" rx="13" fill="#C8FB5F"/>
    <text id="Eyebrow-Number" x="104" y="129.37" font-family="Inter-SemiBold" font-size="12" font-weight="600" fill="#053C45" text-anchor="middle">01</text>
    <text id="Eyebrow-Label" x="144" y="129.37" font-family="Inter-Medium" font-size="12" font-weight="500" fill="#5A7175" letter-spacing="2.64">ABOUT AFAQ</text>
  </g>
  <text id="Title" x="80" y="239.92" font-family="Inter-Light" font-size="96" font-weight="300" fill="#053C45" letter-spacing="-2.88">About AFAQ.</text>
  <g id="Body-1">
    <text id="Body-1-line" x="80" y="319.82" font-family="Inter-Regular" font-size="27" font-weight="400" fill="#053C45">AFAQ for Energy &amp; Integrated Business is an Omani</text>
    <text id="Body-1-line-2" x="80" y="359.82" font-family="Inter-Regular" font-size="27" font-weight="400" fill="#053C45">company based in Muscat. It works in solar power, energy</text>
    <text id="Body-1-line-3" x="80" y="399.82" font-family="Inter-Regular" font-size="27" font-weight="400" fill="#053C45">storage and the electrical systems that go with them.</text>
  </g>
  <g id="Body-2">
    <text id="Body-2-line" x="80" y="463.18" font-family="Inter-Regular" font-size="17" font-weight="400" fill="#5A7175">The company designs photovoltaic systems,</text>
    <text id="Body-2-line-2" x="80" y="489.18" font-family="Inter-Regular" font-size="17" font-weight="400" fill="#5A7175">supplies their components, installs them and brings</text>
    <text id="Body-2-line-3" x="80" y="515.18" font-family="Inter-Regular" font-size="17" font-weight="400" fill="#5A7175">them into operation, at sizes ranging from building</text>
    <text id="Body-2-line-4" x="80" y="541.18" font-family="Inter-Regular" font-size="17" font-weight="400" fill="#5A7175">systems to project plants.</text>
  </g>
  <g id="Body-3">
    <text id="Body-3-line" x="570" y="463.18" font-family="Inter-Regular" font-size="17" font-weight="400" fill="#5A7175">AFAQ works directly with facility owners, and with</text>
    <text id="Body-3-line-2" x="570" y="489.18" font-family="Inter-Regular" font-size="17" font-weight="400" fill="#5A7175">contractors and developers inside their own</text>
    <text id="Body-3-line-3" x="570" y="515.18" font-family="Inter-Regular" font-size="17" font-weight="400" fill="#5A7175">projects.</text>
  </g>
  <g id="Photo-Array">
    <path id="Photo-Array__set-image-fill" d="M 80 640 C 80 620.12 96.12 604 116 604 L 964 604 C 983.88 604 1000 620.12 1000 640 L 1000 1740 C 1000 1759.88 983.88 1776 964 1776 L 116 1776 C 96.12 1776 80 1759.88 80 1740 Z" fill="url(#grad-1)"/>
    <g id="Placeholder-Art--delete-after-placing-photo">
      <circle id="Sun-Glow" cx="779.2" cy="908.72" r="148.58" fill="#FD7E25" opacity="0.18"/>
      <circle id="Sun" cx="779.2" cy="908.72" r="78.2" fill="#FD7E25"/>
      <path id="Mountains-Far" d="M 80 1389.24 L 245.6 1166.56 L 383.6 1225.16 L 558.4 1096.24 L 724 1213.44 L 871.2 1143.12 L 1000 1236.88 L 1000 1389.24 Z" fill="#1F7580" opacity="0.55"/>
      <path id="Mountains-Near" d="M 80 1389.24 L 190.4 1248.6 L 356 1330.64 L 503.2 1213.44 L 668.8 1318.92 L 816 1260.32 L 1000 1342.36 L 1000 1389.24 Z" fill="#053C45" opacity="0.9"/>
      <g id="Solar-Array">
        <path id="Panel-1-1" d="M 152.12 1374.59 C 152.47 1372.97 154.1 1371.66 155.76 1371.66 L 253.19 1371.66 C 254.85 1371.66 255.9 1372.97 255.54 1374.59 L 240.07 1444.91 C 239.72 1446.53 238.09 1447.84 236.43 1447.84 L 139 1447.84 C 137.34 1447.84 136.29 1446.53 136.64 1444.91 Z" fill="#202C28" stroke="#C8FB5F" stroke-width="1.5" stroke-linecap="round" stroke-linejoin="round" opacity="0.95"/>
        <path id="Panel-1-1-line" d="M 204.47 1371.66 L 187.71 1447.84" fill="none" stroke="#C8FB5F" stroke-width="1" stroke-linecap="butt" stroke-linejoin="round" opacity="0.35"/>
        <path id="Panel-1-2" d="M 269.54 1374.59 C 269.9 1372.97 271.53 1371.66 273.19 1371.66 L 370.62 1371.66 C 372.27 1371.66 373.33 1372.97 372.97 1374.59 L 357.5 1444.91 C 357.15 1446.53 355.51 1447.84 353.86 1447.84 L 256.43 1447.84 C 254.77 1447.84 253.72 1446.53 254.07 1444.91 Z" fill="#202C28" stroke="#C8FB5F" stroke-width="1.5" stroke-linecap="round" stroke-linejoin="round" opacity="0.95"/>
        <path id="Panel-1-2-line" d="M 321.9 1371.66 L 305.14 1447.84" fill="none" stroke="#C8FB5F" stroke-width="1" stroke-linecap="butt" stroke-linejoin="round" opacity="0.35"/>
        <path id="Panel-1-3" d="M 386.97 1374.59 C 387.33 1372.97 388.96 1371.66 390.62 1371.66 L 488.05 1371.66 C 489.7 1371.66 490.76 1372.97 490.4 1374.59 L 474.93 1444.91 C 474.57 1446.53 472.94 1447.84 471.29 1447.84 L 373.86 1447.84 C 372.2 1447.84 371.15 1446.53 371.5 1444.91 Z" fill="#202C28" stroke="#C8FB5F" stroke-width="1.5" stroke-linecap="round" stroke-linejoin="round" opacity="0.95"/>
        <path id="Panel-1-3-line" d="M 439.33 1371.66 L 422.57 1447.84" fill="none" stroke="#C8FB5F" stroke-width="1" stroke-linecap="butt" stroke-linejoin="round" opacity="0.35"/>
        <path id="Panel-1-4" d="M 504.4 1374.59 C 504.76 1372.97 506.39 1371.66 508.05 1371.66 L 605.47 1371.66 C 607.13 1371.66 608.19 1372.97 607.83 1374.59 L 592.36 1444.91 C 592 1446.53 590.37 1447.84 588.71 1447.84 L 491.29 1447.84 C 489.63 1447.84 488.57 1446.53 488.93 1444.91 Z" fill="#202C28" stroke="#C8FB5F" stroke-width="1.5" stroke-linecap="round" stroke-linejoin="round" opacity="0.95"/>
        <path id="Panel-1-4-line" d="M 556.76 1371.66 L 540 1447.84" fill="none" stroke="#C8FB5F" stroke-width="1" stroke-linecap="butt" stroke-linejoin="round" opacity="0.35"/>
        <path id="Panel-1-5" d="M 621.83 1374.59 C 622.19 1372.97 623.82 1371.66 625.47 1371.66 L 722.9 1371.66 C 724.56 1371.66 725.61 1372.97 725.26 1374.59 L 709.79 1444.91 C 709.43 1446.53 707.8 1447.84 706.14 1447.84 L 608.71 1447.84 C 607.06 1447.84 606 1446.53 606.36 1444.91 Z" fill="#202C28" stroke="#C8FB5F" stroke-width="1.5" stroke-linecap="round" stroke-linejoin="round" opacity="0.95"/>
        <path id="Panel-1-5-line" d="M 674.19 1371.66 L 657.43 1447.84" fill="none" stroke="#C8FB5F" stroke-width="1" stroke-linecap="butt" stroke-linejoin="round" opacity="0.35"/>
        <path id="Panel-1-6" d="M 739.26 1374.59 C 739.61 1372.97 741.25 1371.66 742.9 1371.66 L 840.33 1371.66 C 841.99 1371.66 843.04 1372.97 842.69 1374.59 L 827.22 1444.91 C 826.86 1446.53 825.23 1447.84 823.57 1447.84 L 726.14 1447.84 C 724.49 1447.84 723.43 1446.53 723.79 1444.91 Z" fill="#202C28" stroke="#C8FB5F" stroke-width="1.5" stroke-linecap="round" stroke-linejoin="round" opacity="0.95"/>
        <path id="Panel-1-6-line" d="M 791.62 1371.66 L 774.86 1447.84" fill="none" stroke="#C8FB5F" stroke-width="1" stroke-linecap="butt" stroke-linejoin="round" opacity="0.35"/>
        <path id="Panel-1-7" d="M 856.69 1374.59 C 857.04 1372.97 858.67 1371.66 860.33 1371.66 L 957.76 1371.66 C 959.42 1371.66 960.47 1372.97 960.12 1374.59 L 944.64 1444.91 C 944.29 1446.53 942.66 1447.84 941 1447.84 L 843.57 1447.84 C 841.91 1447.84 840.86 1446.53 841.22 1444.91 Z" fill="#202C28" stroke="#C8FB5F" stroke-width="1.5" stroke-linecap="round" stroke-linejoin="round" opacity="0.95"/>
        <path id="Panel-1-7-line" d="M 909.05 1371.66 L 892.29 1447.84" fill="none" stroke="#C8FB5F" stroke-width="1" stroke-linecap="butt" stroke-linejoin="round" opacity="0.35"/>
        <path id="Panel-2-1" d="M 154.69 1480.07 C 155.05 1478.45 156.68 1477.14 158.34 1477.14 L 270.34 1477.14 C 271.99 1477.14 273.05 1478.45 272.69 1480.07 L 254.64 1562.11 C 254.29 1563.73 252.66 1565.04 251 1565.04 L 139 1565.04 C 137.34 1565.04 136.29 1563.73 136.64 1562.11 Z" fill="#202C28" stroke="#C8FB5F" stroke-width="1.5" stroke-linecap="round" stroke-linejoin="round" opacity="0.95"/>
        <path id="Panel-2-1-line" d="M 214.34 1477.14 L 195 1565.04" fill="none" stroke="#C8FB5F" stroke-width="1" stroke-linecap="butt" stroke-linejoin="round" opacity="0.35"/>
        <path id="Panel-2-2" d="M 292.69 1480.07 C 293.05 1478.45 294.68 1477.14 296.34 1477.14 L 408.34 1477.14 C 409.99 1477.14 411.05 1478.45 410.69 1480.07 L 392.64 1562.11 C 392.29 1563.73 390.66 1565.04 389 1565.04 L 277 1565.04 C 275.34 1565.04 274.29 1563.73 274.64 1562.11 Z" fill="#202C28" stroke="#C8FB5F" stroke-width="1.5" stroke-linecap="round" stroke-linejoin="round" opacity="0.95"/>
        <path id="Panel-2-2-line" d="M 352.34 1477.14 L 333 1565.04" fill="none" stroke="#C8FB5F" stroke-width="1" stroke-linecap="butt" stroke-linejoin="round" opacity="0.35"/>
        <path id="Panel-2-3" d="M 430.69 1480.07 C 431.05 1478.45 432.68 1477.14 434.34 1477.14 L 546.34 1477.14 C 547.99 1477.14 549.05 1478.45 548.69 1480.07 L 530.64 1562.11 C 530.29 1563.73 528.66 1565.04 527 1565.04 L 415 1565.04 C 413.34 1565.04 412.29 1563.73 412.64 1562.11 Z" fill="#202C28" stroke="#C8FB5F" stroke-width="1.5" stroke-linecap="round" stroke-linejoin="round" opacity="0.95"/>
        <path id="Panel-2-3-line" d="M 490.34 1477.14 L 471 1565.04" fill="none" stroke="#C8FB5F" stroke-width="1" stroke-linecap="butt" stroke-linejoin="round" opacity="0.35"/>
        <path id="Panel-2-4" d="M 568.69 1480.07 C 569.05 1478.45 570.68 1477.14 572.34 1477.14 L 684.34 1477.14 C 685.99 1477.14 687.05 1478.45 686.69 1480.07 L 668.64 1562.11 C 668.29 1563.73 666.66 1565.04 665 1565.04 L 553 1565.04 C 551.34 1565.04 550.29 1563.73 550.64 1562.11 Z" fill="#202C28" stroke="#C8FB5F" stroke-width="1.5" stroke-linecap="round" stroke-linejoin="round" opacity="0.95"/>
        <path id="Panel-2-4-line" d="M 628.34 1477.14 L 609 1565.04" fill="none" stroke="#C8FB5F" stroke-width="1" stroke-linecap="butt" stroke-linejoin="round" opacity="0.35"/>
        <path id="Panel-2-5" d="M 706.69 1480.07 C 707.05 1478.45 708.68 1477.14 710.34 1477.14 L 822.34 1477.14 C 823.99 1477.14 825.05 1478.45 824.69 1480.07 L 806.64 1562.11 C 806.29 1563.73 804.66 1565.04 803 1565.04 L 691 1565.04 C 689.34 1565.04 688.29 1563.73 688.64 1562.11 Z" fill="#202C28" stroke="#C8FB5F" stroke-width="1.5" stroke-linecap="round" stroke-linejoin="round" opacity="0.95"/>
        <path id="Panel-2-5-line" d="M 766.34 1477.14 L 747 1565.04" fill="none" stroke="#C8FB5F" stroke-width="1" stroke-linecap="butt" stroke-linejoin="round" opacity="0.35"/>
        <path id="Panel-2-6" d="M 844.69 1480.07 C 845.05 1478.45 846.68 1477.14 848.34 1477.14 L 960.34 1477.14 C 961.99 1477.14 963.05 1478.45 962.69 1480.07 L 944.64 1562.11 C 944.29 1563.73 942.66 1565.04 941 1565.04 L 829 1565.04 C 827.34 1565.04 826.29 1563.73 826.64 1562.11 Z" fill="#202C28" stroke="#C8FB5F" stroke-width="1.5" stroke-linecap="round" stroke-linejoin="round" opacity="0.95"/>
        <path id="Panel-2-6-line" d="M 904.34 1477.14 L 885 1565.04" fill="none" stroke="#C8FB5F" stroke-width="1" stroke-linecap="butt" stroke-linejoin="round" opacity="0.35"/>
        <path id="Panel-3-1" d="M 158.56 1597.27 C 158.92 1595.65 160.55 1594.34 162.21 1594.34 L 297.01 1594.34 C 298.66 1594.34 299.72 1595.65 299.36 1597.27 L 277.44 1696.89 C 277.09 1698.51 275.46 1699.82 273.8 1699.82 L 139 1699.82 C 137.34 1699.82 136.29 1698.51 136.64 1696.89 Z" fill="#202C28" stroke="#C8FB5F" stroke-width="1.5" stroke-linecap="round" stroke-linejoin="round" opacity="0.95"/>
        <path id="Panel-3-1-line" d="M 229.61 1594.34 L 206.4 1699.82" fill="none" stroke="#C8FB5F" stroke-width="1" stroke-linecap="butt" stroke-linejoin="round" opacity="0.35"/>
        <path id="Panel-3-2" d="M 325.36 1597.27 C 325.72 1595.65 327.35 1594.34 329.01 1594.34 L 463.81 1594.34 C 465.46 1594.34 466.52 1595.65 466.16 1597.27 L 444.24 1696.89 C 443.89 1698.51 442.26 1699.82 440.6 1699.82 L 305.8 1699.82 C 304.14 1699.82 303.09 1698.51 303.44 1696.89 Z" fill="#202C28" stroke="#C8FB5F" stroke-width="1.5" stroke-linecap="round" stroke-linejoin="round" opacity="0.95"/>
        <path id="Panel-3-2-line" d="M 396.41 1594.34 L 373.2 1699.82" fill="none" stroke="#C8FB5F" stroke-width="1" stroke-linecap="butt" stroke-linejoin="round" opacity="0.35"/>
        <path id="Panel-3-3" d="M 492.16 1597.27 C 492.52 1595.65 494.15 1594.34 495.81 1594.34 L 630.61 1594.34 C 632.26 1594.34 633.32 1595.65 632.96 1597.27 L 611.04 1696.89 C 610.69 1698.51 609.06 1699.82 607.4 1699.82 L 472.6 1699.82 C 470.94 1699.82 469.89 1698.51 470.24 1696.89 Z" fill="#202C28" stroke="#C8FB5F" stroke-width="1.5" stroke-linecap="round" stroke-linejoin="round" opacity="0.95"/>
        <path id="Panel-3-3-line" d="M 563.21 1594.34 L 540 1699.82" fill="none" stroke="#C8FB5F" stroke-width="1" stroke-linecap="butt" stroke-linejoin="round" opacity="0.35"/>
        <path id="Panel-3-4" d="M 658.96 1597.27 C 659.32 1595.65 660.95 1594.34 662.61 1594.34 L 797.41 1594.34 C 799.06 1594.34 800.12 1595.65 799.76 1597.27 L 777.84 1696.89 C 777.49 1698.51 775.86 1699.82 774.2 1699.82 L 639.4 1699.82 C 637.74 1699.82 636.69 1698.51 637.04 1696.89 Z" fill="#202C28" stroke="#C8FB5F" stroke-width="1.5" stroke-linecap="round" stroke-linejoin="round" opacity="0.95"/>
        <path id="Panel-3-4-line" d="M 730.01 1594.34 L 706.8 1699.82" fill="none" stroke="#C8FB5F" stroke-width="1" stroke-linecap="butt" stroke-linejoin="round" opacity="0.35"/>
        <path id="Panel-3-5" d="M 825.76 1597.27 C 826.12 1595.65 827.75 1594.34 829.41 1594.34 L 964.21 1594.34 C 965.86 1594.34 966.92 1595.65 966.56 1597.27 L 944.64 1696.89 C 944.29 1698.51 942.66 1699.82 941 1699.82 L 806.2 1699.82 C 804.54 1699.82 803.49 1698.51 803.84 1696.89 Z" fill="#202C28" stroke="#C8FB5F" stroke-width="1.5" stroke-linecap="round" stroke-linejoin="round" opacity="0.95"/>
        <path id="Panel-3-5-line" d="M 896.81 1594.34 L 873.6 1699.82" fill="none" stroke="#C8FB5F" stroke-width="1" stroke-linecap="butt" stroke-linejoin="round" opacity="0.35"/>
      </g>
    </g>
  </g>
  <g id="Statement-Panel">
    <rect id="Statement-Shape" x="80" y="604" width="520" height="400" rx="36" fill="#C8FB5F"/>
    <g id="Statement-Text">
      <text id="Statement-Text-line" x="124" y="712.19" font-family="Inter-Light" font-size="72" font-weight="300" fill="#053C45" letter-spacing="-2.16">Energy.</text>
      <text id="Statement-Text-line-2" x="124" y="788.19" font-family="Inter-Light" font-size="72" font-weight="300" fill="#053C45" letter-spacing="-2.16">Engineered.</text>
    </g>
    <g id="Logo-Lockup-Services">
      <g id="Logo-Lockup">
        <g id="Wordmark-AFAQ">
          <path id="Letters-AFAQ" d="M 363.88 903.87 C 362.94 903.71 361.9 903.17 361.14 902.47 C 360.77 902.12 358.87 899.92 356.93 897.58 C 354.98 895.24 353.21 893.16 352.99 892.96 C 352.76 892.76 352.19 892.4 351.73 892.17 C 350.92 891.78 350.79 891.76 349.43 891.76 C 347.2 891.77 347.05 891.86 343.61 895.34 C 340.59 898.39 340.1 898.75 338.34 899.2 C 337.36 899.46 321.11 899.65 318.84 899.43 C 315.97 899.16 313.73 898.38 311.46 896.87 C 309.16 895.34 307.44 893.36 306.22 890.86 C 304.99 888.31 305.04 888.84 305.04 879.64 C 305.04 870.56 305 870.96 306.07 868.7 C 307.62 865.44 310.28 862.71 313.42 861.18 C 315.87 859.98 314.27 860.08 331.89 860.03 C 343.18 859.99 347.8 860.02 348.65 860.13 C 353.8 860.8 358.41 864.92 359.93 870.24 L 360.28 871.46 L 360.37 878.46 C 360.44 884.57 360.48 885.55 360.67 886.12 C 361.06 887.27 360.69 886.82 365.86 892.25 C 369.86 896.44 369.99 896.65 369.99 898.81 C 369.99 900.19 369.97 900.31 369.58 901.06 C 368.84 902.48 367.38 903.57 365.81 903.86 C 364.95 904.02 364.77 904.02 363.88 903.87 Z M 199.33 900.39 C 197.74 899.96 196.17 898.77 195.42 897.42 L 195.04 896.73 L 195.04 885.86 C 195.04 875.42 195.05 874.96 195.29 874.4 C 195.58 873.73 195.92 873.28 199.02 869.36 C 205.28 861.49 204.92 861.88 206.43 861.12 C 208.24 860.21 207.26 860.25 224.45 860.29 L 239.96 860.33 L 240.6 860.65 C 241.62 861.18 242.32 861.88 242.83 862.9 C 243.25 863.74 243.3 863.94 243.3 864.92 C 243.3 865.72 243.22 866.2 243.01 866.75 C 242.61 867.8 241.58 868.89 240.52 869.38 L 239.7 869.76 L 226.34 869.82 C 211.54 869.9 212.83 869.82 211.05 870.77 C 209.06 871.83 206.93 874.84 207.05 876.42 L 207.09 876.96 L 219.99 877.02 L 232.89 877.09 L 233.58 877.47 C 235.17 878.35 236.04 879.87 235.93 881.54 C 235.89 882.05 235.75 882.73 235.6 883.07 C 235.2 883.98 234.08 885.04 233.17 885.39 C 232.42 885.67 232.37 885.67 221.04 885.67 C 213.14 885.67 209.45 885.71 208.97 885.81 C 208.43 885.93 208.16 886.09 207.67 886.58 C 206.82 887.43 206.76 887.8 206.76 892.14 C 206.76 895.37 206.74 895.81 206.5 896.58 C 205.62 899.43 202.3 901.19 199.33 900.39 Z M 236.39 900.29 C 233.93 899.35 232.55 896.92 233.07 894.42 C 233.26 893.52 233.66 892.92 237.14 888.33 C 239.12 885.72 239.87 884.84 240.46 884.4 C 241.66 883.52 242.07 883.44 245.79 883.44 C 249.35 883.44 250.18 883.34 251.38 882.77 C 252.61 882.18 253.56 881.21 255.72 878.29 C 258.92 873.96 261.87 869.98 264.68 866.15 C 267.66 862.1 268.52 861.15 269.83 860.51 C 270.69 860.08 270.79 860.07 272.24 860.07 C 273.69 860.07 273.78 860.08 274.66 860.51 C 275.62 860.98 276.85 862.1 277.49 863.08 C 277.78 863.51 282.6 870.54 285.27 874.4 C 285.64 874.94 287.79 878.07 290.05 881.35 C 292.31 884.62 295.01 888.54 296.05 890.05 C 298.44 893.52 298.62 893.89 298.62 895.36 C 298.61 896.32 298.56 896.59 298.22 897.32 C 297.52 898.8 296.26 899.86 294.7 900.26 C 292.88 900.73 291.01 900.32 289.74 899.17 C 289.53 898.98 288.68 897.88 287.85 896.73 C 287.01 895.58 286.03 894.22 285.66 893.72 C 285.29 893.22 283.73 891.09 282.21 888.99 C 280.69 886.89 279.2 884.95 278.9 884.68 C 278.6 884.42 278.03 884.04 277.62 883.85 L 276.89 883.51 L 266.13 883.53 C 255.87 883.56 255.34 883.58 254.7 883.82 C 253.66 884.21 252.81 884.93 251.84 886.23 C 250.56 887.94 246.12 893.9 244.51 896.08 C 242.7 898.51 241.78 899.44 240.57 900.04 C 239.7 900.47 239.48 900.52 238.41 900.56 C 237.4 900.59 237.08 900.55 236.39 900.29 Z M 127.86 900.29 C 126.33 899.9 125.06 898.86 124.41 897.48 C 124.11 896.83 124.07 896.57 124.07 895.42 C 124.07 894.57 124.13 893.95 124.26 893.65 C 124.46 893.18 130.14 885.53 130.86 884.77 C 131.08 884.54 131.65 884.15 132.12 883.92 L 132.96 883.51 L 136.89 883.43 C 140.48 883.36 140.9 883.32 141.6 883.07 C 142.54 882.73 143.43 882.17 143.98 881.58 C 144.21 881.34 147.31 877.26 150.87 872.51 C 154.43 867.75 157.72 863.37 158.17 862.78 C 159.6 860.87 160.65 860.35 163.02 860.33 C 164.44 860.33 164.58 860.35 165.38 860.73 C 166.53 861.28 167.36 862.06 168.5 863.68 C 169.68 865.35 172.59 869.52 176.64 875.32 C 178.32 877.73 180.5 880.86 181.48 882.26 C 182.47 883.67 184.5 886.58 186 888.73 C 187.57 890.97 188.88 892.99 189.07 893.44 C 189.33 894.08 189.4 894.48 189.4 895.36 C 189.41 896.34 189.36 896.57 189.01 897.32 C 188.48 898.42 188.03 898.95 187.08 899.56 C 185.98 900.27 184.65 900.55 183.34 900.35 C 181.33 900.04 180.8 899.61 178.44 896.34 C 177.5 895.05 176.57 893.78 176.38 893.52 C 176.18 893.27 174.77 891.33 173.23 889.2 C 171.69 887.08 170.2 885.11 169.91 884.83 C 169.61 884.55 168.99 884.14 168.52 883.91 L 167.67 883.51 L 157.43 883.47 C 148.63 883.44 147.07 883.46 146.33 883.63 C 145.25 883.88 144.56 884.23 143.83 884.91 C 143.51 885.2 141.32 888.03 138.96 891.2 C 136.6 894.37 134.33 897.4 133.92 897.93 C 133.05 899.03 132.23 899.69 131.22 900.08 C 130.33 900.41 128.74 900.52 127.86 900.29 Z M 344.24 889.01 C 346.12 888.51 347.73 887.22 348.55 885.56 L 349.04 884.57 L 349.04 879.39 L 349.04 874.21 L 348.68 873.43 C 347.88 871.73 346.51 870.47 344.7 869.78 L 343.93 869.49 L 333 869.46 L 322.07 869.42 L 321 869.75 C 319.1 870.34 317.57 871.62 316.73 873.33 L 316.3 874.2 L 316.27 879.22 C 316.23 883.53 316.26 884.32 316.44 884.85 C 317.09 886.77 318.7 888.31 320.69 888.9 C 321.67 889.19 321.69 889.19 332.61 889.19 C 341.68 889.2 343.66 889.17 344.24 889.01 Z" fill="#053C45"/>
        </g>
        <text id="Tagline" x="124" y="927" font-family="Inter-Medium" font-size="11" font-weight="500" fill="#053C45" letter-spacing="6.6">ENERGY. ENGINEERED.</text>
      </g>
      <path id="Lockup-Divider" d="M 410.05 860 L 410.05 908.4" fill="none" stroke="#053C45" stroke-width="1.5" stroke-linecap="butt" stroke-linejoin="round" opacity="0.6"/>
      <g id="Services">
        <g id="Services-List">
          <text id="Services-List-line" x="440.05" y="872" font-family="Inter-Medium" font-size="11" font-weight="500" fill="#053C45" letter-spacing="2.2">SOLAR</text>
          <text id="Services-List-line-2" x="440.05" y="884" font-family="Inter-Medium" font-size="11" font-weight="500" fill="#053C45" letter-spacing="2.2">STORAGE</text>
          <text id="Services-List-line-3" x="440.05" y="896" font-family="Inter-Medium" font-size="11" font-weight="500" fill="#053C45" letter-spacing="2.2">ELECTRICAL</text>
          <text id="Services-List-line-4" x="440.05" y="908" font-family="Inter-Medium" font-size="11" font-weight="500" fill="#053C45" letter-spacing="2.2">ENGINEERING</text>
        </g>
      </g>
    </g>
  </g>
  <g id="Label-Tab">
    <rect id="Label-Tab-Shape" x="832" y="640" width="132" height="104" rx="16" fill="#FD7E25"/>
    <g id="Label-Tab-Text">
      <text id="Label-Tab-Text-line" x="850" y="669.64" font-family="Inter-Medium" font-size="10" font-weight="500" fill="#03343D" letter-spacing="1.8">SOLAR</text>
      <text id="Label-Tab-Text-line-2" x="850" y="685.64" font-family="Inter-Medium" font-size="10" font-weight="500" fill="#03343D" letter-spacing="1.8">STORAGE</text>
      <text id="Label-Tab-Text-line-3" x="850" y="701.64" font-family="Inter-Medium" font-size="10" font-weight="500" fill="#03343D" letter-spacing="1.8">ELECTRICAL</text>
      <text id="Label-Tab-Text-line-4" x="850" y="717.64" font-family="Inter-Medium" font-size="10" font-weight="500" fill="#03343D" letter-spacing="1.8">ENGINEERING</text>
    </g>
  </g>
  <g id="Ribbon">
    <path id="Ribbon-Teal" d="M 120 1654.8 C 267 1633.8 413 1681.8 560 1665.8 C 707 1644.8 853 1612.8 1000 1623.8 L 1000 1710.2 C 853 1699.2 707 1731.2 560 1752.2 C 413 1768.2 267 1720.2 120 1741.2 Z" fill="#053C45"/>
    <path id="Ribbon-Orange" d="M 80 1696 C 227 1675 373 1723 520 1707 C 667 1686 813 1654 960 1665 L 960 1675 C 813 1664 667 1696 520 1717 C 373 1733 227 1685 80 1706 Z" fill="#FD7E25"/>
    <path id="Ribbon-Lime" d="M 80 1602 C 227 1581 373 1629 520 1613 C 667 1592 813 1560 960 1571 L 960 1667 C 813 1656 667 1688 520 1709 C 373 1725 227 1677 80 1698 Z" fill="url(#grad-2)"/>
  </g>
  <g id="Footer">
    <path id="Footer-Rule" d="M 80 1836 L 1000 1836" fill="none" stroke="#D9DCCF" stroke-width="1" stroke-linecap="butt" stroke-linejoin="round"/>
    <g id="Footer-Wordmark">
      <path id="Letters-AFAQ-2" d="M 178.13 1879.94 C 177.75 1879.88 177.32 1879.66 177.01 1879.37 C 176.86 1879.23 176.08 1878.33 175.29 1877.38 C 174.49 1876.42 173.77 1875.57 173.68 1875.48 C 173.58 1875.4 173.35 1875.26 173.16 1875.16 C 172.83 1875 172.78 1874.99 172.22 1874.99 C 171.31 1874.99 171.25 1875.03 169.84 1876.46 C 168.61 1877.7 168.41 1877.85 167.69 1878.04 C 167.28 1878.14 160.64 1878.22 159.71 1878.13 C 158.53 1878.02 157.62 1877.7 156.69 1877.08 C 155.75 1876.46 155.04 1875.65 154.55 1874.62 C 154.04 1873.58 154.06 1873.8 154.06 1870.04 C 154.06 1866.32 154.05 1866.49 154.49 1865.56 C 155.12 1864.22 156.21 1863.11 157.49 1862.48 C 158.49 1861.99 157.84 1862.03 165.04 1862.01 C 169.67 1862 171.55 1862.01 171.9 1862.05 C 174.01 1862.33 175.89 1864.01 176.52 1866.19 L 176.66 1866.69 L 176.7 1869.55 C 176.73 1872.05 176.74 1872.45 176.82 1872.69 C 176.98 1873.15 176.83 1872.97 178.94 1875.19 C 180.58 1876.91 180.63 1876.99 180.63 1877.88 C 180.63 1878.44 180.62 1878.49 180.47 1878.8 C 180.16 1879.38 179.56 1879.82 178.92 1879.94 C 178.57 1880.01 178.5 1880.01 178.13 1879.94 Z M 110.82 1878.52 C 110.17 1878.35 109.53 1877.86 109.22 1877.31 L 109.06 1877.03 L 109.06 1872.58 C 109.06 1868.31 109.07 1868.12 109.17 1867.89 C 109.28 1867.61 109.42 1867.43 110.69 1865.83 C 113.25 1862.61 113.11 1862.77 113.72 1862.46 C 114.46 1862.09 114.06 1862.1 121.09 1862.12 L 127.44 1862.13 L 127.7 1862.27 C 128.12 1862.48 128.4 1862.77 128.61 1863.19 C 128.79 1863.53 128.8 1863.61 128.8 1864.01 C 128.8 1864.34 128.77 1864.54 128.69 1864.76 C 128.52 1865.19 128.1 1865.64 127.67 1865.84 L 127.33 1865.99 L 121.87 1866.02 C 115.81 1866.05 116.34 1866.02 115.61 1866.41 C 114.8 1866.84 113.93 1868.07 113.97 1868.72 L 113.99 1868.94 L 119.27 1868.96 L 124.54 1868.99 L 124.83 1869.15 C 125.48 1869.51 125.84 1870.13 125.79 1870.81 C 125.77 1871.02 125.71 1871.3 125.65 1871.44 C 125.49 1871.81 125.03 1872.25 124.66 1872.38 C 124.35 1872.5 124.33 1872.5 119.7 1872.5 C 116.47 1872.5 114.96 1872.52 114.76 1872.56 C 114.54 1872.61 114.43 1872.67 114.23 1872.87 C 113.88 1873.22 113.86 1873.37 113.86 1875.15 C 113.86 1876.47 113.85 1876.65 113.75 1876.97 C 113.39 1878.13 112.03 1878.85 110.82 1878.52 Z M 125.98 1878.48 C 124.97 1878.1 124.41 1877.1 124.62 1876.08 C 124.7 1875.71 124.86 1875.47 126.29 1873.59 C 127.1 1872.52 127.4 1872.16 127.64 1871.98 C 128.13 1871.62 128.3 1871.59 129.82 1871.59 C 131.28 1871.59 131.62 1871.55 132.11 1871.31 C 132.61 1871.08 133 1870.68 133.88 1869.48 C 135.2 1867.71 136.4 1866.08 137.55 1864.52 C 138.77 1862.86 139.12 1862.47 139.66 1862.21 C 140.01 1862.03 140.05 1862.03 140.64 1862.03 C 141.24 1862.03 141.27 1862.03 141.63 1862.21 C 142.03 1862.4 142.53 1862.86 142.79 1863.26 C 142.91 1863.44 144.88 1866.31 145.97 1867.89 C 146.13 1868.11 147.01 1869.39 147.93 1870.73 C 148.85 1872.07 149.96 1873.68 150.38 1874.29 C 151.36 1875.71 151.44 1875.86 151.43 1876.46 C 151.43 1876.86 151.41 1876.97 151.27 1877.27 C 150.99 1877.87 150.47 1878.31 149.83 1878.47 C 149.09 1878.66 148.32 1878.49 147.8 1878.02 C 147.72 1877.95 147.37 1877.5 147.03 1877.03 C 146.69 1876.56 146.28 1876 146.13 1875.79 C 145.98 1875.59 145.35 1874.72 144.72 1873.86 C 144.1 1873 143.49 1872.21 143.37 1872.1 C 143.25 1871.99 143.01 1871.83 142.85 1871.76 L 142.54 1871.62 L 138.14 1871.63 C 133.95 1871.64 133.73 1871.64 133.47 1871.74 C 133.04 1871.9 132.69 1872.2 132.3 1872.73 C 131.78 1873.43 129.96 1875.87 129.3 1876.76 C 128.56 1877.76 128.18 1878.13 127.69 1878.38 C 127.33 1878.56 127.24 1878.58 126.8 1878.59 C 126.39 1878.61 126.26 1878.59 125.98 1878.48 Z M 81.58 1878.48 C 80.95 1878.32 80.44 1877.9 80.17 1877.33 C 80.05 1877.07 80.03 1876.96 80.03 1876.49 C 80.03 1876.14 80.05 1875.89 80.11 1875.77 C 80.19 1875.57 82.51 1872.44 82.81 1872.14 C 82.9 1872.04 83.13 1871.88 83.32 1871.79 L 83.67 1871.62 L 85.28 1871.58 C 86.74 1871.56 86.91 1871.54 87.2 1871.44 C 87.58 1871.3 87.95 1871.07 88.18 1870.83 C 88.27 1870.73 89.53 1869.06 90.99 1867.12 C 92.45 1865.17 93.79 1863.38 93.98 1863.14 C 94.56 1862.36 94.99 1862.14 95.96 1862.14 C 96.55 1862.13 96.6 1862.14 96.93 1862.3 C 97.4 1862.52 97.74 1862.84 98.21 1863.51 C 98.69 1864.19 99.88 1865.89 101.53 1868.27 C 102.22 1869.26 103.11 1870.53 103.52 1871.11 C 103.92 1871.68 104.75 1872.87 105.36 1873.75 C 106 1874.67 106.54 1875.49 106.62 1875.68 C 106.73 1875.94 106.75 1876.1 106.76 1876.46 C 106.76 1876.87 106.74 1876.96 106.59 1877.27 C 106.38 1877.72 106.19 1877.93 105.8 1878.18 C 105.36 1878.47 104.81 1878.59 104.28 1878.51 C 103.45 1878.38 103.24 1878.2 102.27 1876.87 C 101.89 1876.34 101.51 1875.82 101.43 1875.71 C 101.35 1875.61 100.77 1874.82 100.14 1873.95 C 99.51 1873.08 98.9 1872.27 98.78 1872.16 C 98.66 1872.04 98.41 1871.87 98.21 1871.78 L 97.87 1871.62 L 93.68 1871.6 C 90.07 1871.59 89.44 1871.6 89.14 1871.67 C 88.69 1871.77 88.41 1871.91 88.11 1872.19 C 87.98 1872.31 87.09 1873.47 86.12 1874.76 C 85.16 1876.06 84.23 1877.3 84.06 1877.52 C 83.7 1877.97 83.37 1878.24 82.95 1878.39 C 82.59 1878.53 81.94 1878.57 81.58 1878.48 Z M 170.1 1873.87 C 170.87 1873.66 171.53 1873.14 171.86 1872.46 L 172.06 1872.05 L 172.06 1869.93 L 172.06 1867.81 L 171.91 1867.49 C 171.59 1866.8 171.03 1866.29 170.28 1866 L 169.97 1865.88 L 165.5 1865.87 L 161.03 1865.85 L 160.59 1865.99 C 159.81 1866.23 159.19 1866.76 158.84 1867.45 L 158.67 1867.81 L 158.65 1869.86 C 158.64 1871.63 158.65 1871.95 158.72 1872.17 C 158.99 1872.95 159.65 1873.58 160.46 1873.82 C 160.87 1873.94 160.88 1873.94 165.34 1873.94 C 169.05 1873.94 169.86 1873.93 170.1 1873.87 Z" fill="#053C45"/>
    </g>
    <path id="Footer-Divider" d="M 188 1860 L 188 1882" fill="none" stroke="#053C45" stroke-width="1" stroke-linecap="butt" stroke-linejoin="round" opacity="0.35"/>
    <text id="Footer-Profile" x="204" y="1875" font-family="Inter-Medium" font-size="11" font-weight="500" fill="#053C45" letter-spacing="2.42" opacity="0.8">CORPORATE PROFILE 2026</text>
    <text id="Footer-Section" x="962.42" y="1875" font-family="Inter-Medium" font-size="11" font-weight="500" fill="#053C45" letter-spacing="2.42" text-anchor="end" opacity="0.8">ABOUT AFAQ   |   02</text>
  </g>
</svg>
